<?xml version="1.0" standalone="no"?>
<!DOCTYPE svg PUBLIC "-//W3C//DTD SVG 20010904//EN"
 "http://www.w3.org/TR/2001/REC-SVG-20010904/DTD/svg10.dtd">
<svg version="1.0" xmlns="http://www.w3.org/2000/svg"
 width="700.000000pt" height="700.000000pt" viewBox="0 0 700.000000 700.000000"
 preserveAspectRatio="xMidYMid meet">
<metadata>
Created by potrace 1.11, written by Peter Selinger 2001-2013
</metadata>
<g transform="translate(0.000000,700.000000) scale(0.100000,-0.100000)"
fill="#000000" stroke="none">
<path d="M560 6719 c-238 -35 -447 -212 -532 -449 l-23 -65 -3 -1995 c-3
-2195 -6 -2062 58 -2198 77 -163 213 -285 392 -350 l73 -27 1003 -3 c961 -2
1002 -3 1002 -21 0 -10 -7 -87 -15 -172 -24 -254 -75 -517 -141 -736 -19 -62
-34 -115 -34 -118 0 -3 -111 -5 -247 -5 -238 0 -250 -1 -287 -23 -46 -26 -76
-77 -76 -130 0 -50 21 -89 67 -124 l36 -28 1667 0 1667 0 36 28 c51 39 70 80
65 137 -6 57 -35 102 -82 124 -28 13 -74 16 -280 16 -135 0 -246 2 -246 5 0 3
-15 56 -34 118 -39 130 -89 348 -112 492 -14 94 -43 364 -44 412 l0 23 1003 2
1002 3 73 27 c107 39 177 83 262 168 58 57 86 95 117 157 79 158 74 -12 71
2223 l-3 1995 -23 65 c-73 205 -228 357 -437 428 l-80 27 -2920 1 c-1606 1
-2945 -2 -2975 -7z m5920 -330 c68 -32 112 -68 151 -125 60 -87 56 29 63
-1876 l8 -1758 -3201 0 -3201 0 0 1703 c1 936 5 1732 9 1769 20 149 120 266
260 304 36 10 669 12 2951 11 l2905 -2 55 -26z m213 -4121 c-12 -113 -65 -206
-153 -266 -97 -67 165 -62 -3055 -60 l-2920 3 -55 26 c-66 31 -133 96 -165
160 -19 37 -45 140 -45 182 0 4 1440 7 3200 7 l3199 0 -6 -52z m-2529 -705
c17 -194 38 -373 57 -484 19 -111 96 -437 114 -482 7 -16 -37 -17 -835 -17
-798 0 -842 1 -835 18 18 44 95 370 114 481 19 111 40 290 57 484 l6 67 658 0
658 0 6 -67z"/>
<path d="M3812 6033 c-18 -9 -41 -28 -51 -42 -10 -14 -195 -568 -410 -1231
-423 -1299 -406 -1236 -358 -1307 63 -94 214 -80 260 24 9 21 191 571 403
1223 303 931 385 1192 380 1219 -16 104 -129 161 -224 114z"/>
<path d="M2463 5737 c-51 -19 -1093 -915 -1110 -954 -17 -41 -17 -85 0 -126
18 -42 1061 -936 1115 -955 133 -47 257 122 170 233 -11 14 -217 194 -459 401
-241 206 -439 379 -439 384 0 5 200 180 444 389 245 209 452 391 461 405 28
42 29 95 3 146 -36 69 -116 103 -185 77z"/>
<path d="M4437 5736 c-51 -19 -73 -40 -93 -92 -19 -51 -13 -99 17 -138 12 -15
219 -196 460 -402 241 -206 439 -379 439 -384 0 -5 -200 -180 -444 -389 -245
-209 -451 -390 -460 -403 -48 -73 -17 -175 67 -217 57 -28 96 -24 154 17 22
15 268 223 548 462 519 444 535 460 535 528 0 73 -5 78 -549 544 -289 248
-544 459 -566 469 -47 22 -58 22 -108 5z"/>
<path d="M1416 3207 c-46 -26 -76 -77 -76 -130 0 -50 21 -89 67 -124 31 -24
46 -28 99 -28 48 0 69 5 91 21 71 52 91 129 54 202 -39 77 -154 106 -235 59z"/>
<path d="M2190 3208 c-56 -38 -75 -73 -74 -133 0 -42 6 -60 27 -88 55 -73 -76
-68 1764 -65 l1652 3 28 21 c98 73 97 204 -3 261 l-39 23 -1661 0 -1661 0 -33
-22z"/>
</g>
</svg>
